<svg xmlns="http://www.w3.org/2000/svg" xmlns:xlink="http://www.w3.org/1999/xlink" version="1.1" x="0px" y="0px" viewBox="0 0 100 125" enable-background="new 0 0 100 100" xml:space="preserve"><path d="M73.857,52.036c-1.394-4.156-6.959-6.757-10.927-8.5c-1.554-0.681-5.858-1.836-6.375-3.793  c-0.813-3.095,2.272-5.455,3.644-7.892c1.445-2.57,2.649-6.047,2.884-8.954c0.846-10.432-5.552-16.536-14.72-15.479  c-6.668,0.767-10.65,5.738-11.08,12.141c-0.437,6.522,1.983,11.339,4.554,14.873c1.124,1.545,2.304,2.54,2.125,4.401  c-0.213,2.201-2.565,2.814-4.249,3.49c-1.997,0.802-4.144,2.02-5.16,2.58c-3.481,1.925-7.3,4.239-8.182,7.397h47.561  C73.906,52.21,73.883,52.111,73.857,52.036z"/><g><circle fill="none" cx="50.65" cy="72.016" r="1.137"/><path fill="none" d="M79.654,53.473H20.587c-0.827,0-1.5,0.673-1.5,1.5l3.997,33.618c0.003,0.886,0.676,1.559,1.503,1.559h51.067   c0.827,0,1.5-0.673,1.5-1.5l4.004-33.735C81.154,54.146,80.481,53.473,79.654,53.473z M50.65,74.153   c-1.178,0-2.137-0.959-2.137-2.138c0-1.178,0.959-2.137,2.137-2.137c1.178,0,2.137,0.959,2.137,2.137   C52.787,73.194,51.828,74.153,50.65,74.153z"/><path fill="#000000" d="M79.654,52.473H20.587c-1.378,0-2.5,1.121-2.497,2.559l3.997,33.618c0,1.379,1.122,2.5,2.5,2.5h51.067   c1.379,0,2.5-1.121,2.496-2.441l4.004-33.735C82.154,53.594,81.033,52.473,79.654,52.473z M77.154,88.649   c0,0.827-0.673,1.5-1.5,1.5H24.587c-0.827,0-1.5-0.673-1.503-1.559l-3.997-33.618c0-0.827,0.673-1.5,1.5-1.5h59.067   c0.827,0,1.5,0.673,1.504,1.441L77.154,88.649z"/><path fill="#000000" d="M50.65,69.879c-1.178,0-2.137,0.959-2.137,2.137c0,1.179,0.959,2.138,2.137,2.138   c1.178,0,2.137-0.959,2.137-2.138C52.787,70.838,51.828,69.879,50.65,69.879z M50.65,73.153c-0.627,0-1.137-0.511-1.137-1.138   s0.51-1.137,1.137-1.137s1.137,0.51,1.137,1.137S51.277,73.153,50.65,73.153z"/></g><path d="M75.997,91.467H23.76c-0.565,0-1.024,0.458-1.024,1.023c0,0.566,0.458,1.024,1.024,1.024h52.237  c0.565,0,1.023-0.458,1.023-1.024C77.021,91.925,76.563,91.467,75.997,91.467z"/><text x="0" y="115" fill="#000000" font-size="5px" font-weight="bold" font-family="'Helvetica Neue', Helvetica, Arial-Unicode, Arial, Sans-serif">Created by TukTuk Design</text><text x="0" y="120" fill="#000000" font-size="5px" font-weight="bold" font-family="'Helvetica Neue', Helvetica, Arial-Unicode, Arial, Sans-serif">from the Noun Project</text></svg>